Coordinates
version=1
nRows=7
nColumns=40
inDegrees=yes

Units are S.I. units (second, meters, Newtons, ...)
Angles are in degrees.

endheader
time	pelvis_tilt	pelvis_list	pelvis_rotation	pelvis_tx	pelvis_ty	pelvis_tz	hip_flexion_r	hip_adduction_r	hip_rotation_r	knee_angle_r	knee_angle_r_beta	ankle_angle_r	subtalar_angle_r	mtp_angle_r	hip_flexion_l	hip_adduction_l	hip_rotation_l	knee_angle_l	knee_angle_l_beta	ankle_angle_l	subtalar_angle_l	mtp_angle_l	lumbar_extension	lumbar_bending	lumbar_rotation	arm_flex_r	arm_add_r	arm_rot_r	elbow_flex_r	pro_sup_r	wrist_flex_r	wrist_dev_r	arm_flex_l	arm_add_l	arm_rot_l	elbow_flex_l	pro_sup_l	wrist_flex_l	wrist_dev_l
     31.76900000	     -2.91227122	     -3.87594778	     -2.21380181	      0.94239125	      0.93329483	      0.43299628	     37.20279177	     -6.30032196	     -6.24455537	     46.94320626	     46.94320626	     -1.04831819	    -14.87855929	      1.64325307	     10.34509011	     -4.54989569	     -7.62395569	     19.14492183	     19.14492183	     13.27709930	     -9.60590041	     -5.27108943	    -13.25585681	      4.51177284	      1.00127840	      7.54732057	    -17.35920045	     -8.12596526	     28.47222612	     47.39897858	      0.00000000	      0.00000000	      6.65273244	    -14.86500005	     -7.72552029	     61.54589680	     47.21382830	      0.00000000	      0.00000000
     31.78050000	     -2.96347028	     -3.68251383	     -2.54026663	      0.94175523	      0.93308531	      0.43342037	     36.89356793	     -6.31294768	     -6.65419878	     42.97368457	     42.97368457	     -1.31321428	    -13.30520671	      1.14980013	      9.47367411	     -4.36805959	     -8.23283263	     18.50306650	     18.50306650	     13.53119197	     -9.02318285	     -5.69651593	    -13.23830627	      4.30606451	      1.28475906	      6.25879374	    -18.00823880	     -9.20547934	     26.11443758	     47.54511633	      0.00000000	      0.00000000	      7.48603373	    -15.34262876	     -7.48436021	     63.46255329	     47.23575831	      0.00000000	      0.00000000
     31.79200000	     -3.05018945	     -3.63658019	     -2.78106259	      0.94119862	      0.93284842	      0.43388987	     36.38418755	     -6.13600718	     -7.20649552	     38.75427216	     38.75427216	     -1.39697314	    -11.47340154	      1.31671718	      8.68314206	     -4.31590452	     -8.56183296	     17.92556489	     17.92556489	     13.80477433	     -8.67107617	     -5.90445871	    -13.20290483	      4.33047138	      1.12583160	      4.98085695	    -18.65787377	     -9.68008011	     24.98882143	     47.61253567	      0.00000000	      0.00000000	      8.18390839	    -15.81753697	     -7.56692907	     64.66692419	     47.26682849	      0.00000000	      0.00000000
     31.80350000	     -3.13830085	     -3.47565323	     -3.04659237	      0.94093634	      0.93244626	      0.43449104	     35.79467229	     -6.02187512	     -7.79079296	     34.53160350	     34.53160350	     -1.45683228	     -9.32852652	      1.53629561	      7.80212423	     -4.13702885	     -9.02769356	     17.21952971	     17.21952971	     14.07325731	     -8.17903709	     -6.18053105	    -13.05944863	      4.20319502	      1.14954323	      3.57043767	    -19.23238684	    -10.12480480	     23.90703207	     47.67755329	      0.00000000	      0.00000000	      8.88700491	    -16.23584045	     -7.63084835	     66.19340107	     47.30196003	      0.00000000	      0.00000000
     31.81500000	     -3.09049217	     -3.25819928	     -3.30075423	      0.94104032	      0.93207783	      0.43516368	     34.94978950	     -5.96377617	     -8.53233061	     30.37894529	     30.37894529	     -1.34815581	     -6.69097279	      1.72846693	      6.67155418	     -3.88357472	     -9.60645576	     16.35176817	     16.35176817	     14.30062421	     -7.48216778	     -6.64340293	    -13.12297234	      3.96038483	      1.33800627	      2.07569713	    -19.79321938	    -10.76314642	     22.84766283	     47.75728644	      0.00000000	      0.00000000	      9.49033789	    -16.60312409	     -7.56448988	     68.37630471	     47.34048109	      0.00000000	      0.00000000
     31.82650000	     -3.08813546	     -2.93511171	     -3.54245362	      0.94139523	      0.93139756	      0.43593130	     34.18964555	     -5.98133108	     -9.30573606	     26.56420520	     26.56420520	     -1.13524248	     -3.88271173	      2.29155913	      5.54354502	     -3.51163819	    -10.24873023	     15.40146317	     15.40146317	     14.37326938	     -6.70197930	     -7.53012005	    -13.08602721	      3.60391933	      1.34102647	      0.56840840	    -20.13697906	    -12.02701475	     22.22855961	     47.86359656	      0.00000000	      0.00000000	      9.65010288	    -17.22277228	     -7.31298535	     71.37348732	     47.38518454	      0.00000000	      0.00000000
     31.83800000	     -3.04129904	     -2.75702974	     -3.74143131	      0.94201508	      0.93070753	      0.43691529	     33.26533864	     -5.74253531	    -10.02046878	     22.91648198	     22.91648198	     -0.87036840	     -1.61810334	      3.41586170	      4.39756681	     -3.27681652	    -10.65337971	     14.54492007	     14.54492007	     14.58101453	     -6.18500069	     -8.01679865	    -13.03501045	      3.41773244	      1.33125920	     -0.99477850	    -20.54972858	    -12.71878006	     21.93844120	     47.91052710	      0.00000000	      0.00000000	     10.07396563	    -17.57764932	     -7.43581061	     73.33452017	     47.43756610	      0.00000000	      0.00000000
